<mxfile host="app.diagrams.net" modified="2021-03-15T17:27:32.801Z" agent="5.0 (Windows NT 10.0; Win64; x64) AppleWebKit/537.36 (KHTML, like Gecko) Chrome/89.0.4389.82 Safari/537.36" etag="C3wH4PoXRh7lOQoy9Cei" version="14.4.8" type="github">
  <diagram id="LUtXEhOBSvyPao1pJwE6" name="第 1 页">
    <mxGraphModel dx="1422" dy="800" grid="1" gridSize="10" guides="1" tooltips="1" connect="1" arrows="1" fold="1" page="1" pageScale="1" pageWidth="827" pageHeight="1169" math="0" shadow="0">
      <root>
        <mxCell id="0" />
        <mxCell id="1" parent="0" />
        <mxCell id="YVtOy1_-D4vhtOPZS0ep-1" value="" style="rounded=0;whiteSpace=wrap;html=1;dashed=1;strokeWidth=3;fillColor=none;" vertex="1" parent="1">
          <mxGeometry x="320" y="210" width="120" height="170" as="geometry" />
        </mxCell>
        <mxCell id="YVtOy1_-D4vhtOPZS0ep-2" value="" style="rounded=0;whiteSpace=wrap;html=1;strokeWidth=3;dashed=1;dashPattern=1 4;fillColor=#6666FF;strokeColor=none;" vertex="1" parent="1">
          <mxGeometry x="389" y="210" width="50" height="170" as="geometry" />
        </mxCell>
        <mxCell id="YVtOy1_-D4vhtOPZS0ep-3" value="" style="rounded=0;whiteSpace=wrap;html=1;strokeWidth=3;fillColor=none;" vertex="1" parent="1">
          <mxGeometry x="390" y="210" width="120" height="170" as="geometry" />
        </mxCell>
      </root>
    </mxGraphModel>
  </diagram>
</mxfile>
